<svg width="38" height="38" viewBox="0 0 38 38" fill="none" xmlns="http://www.w3.org/2000/svg">
<g clip-path="url(#clip0_192_131)">
<path d="M32.2437 5.87953C31.8757 6.90583 31.6812 7.92913 31.6662 8.95843C31.6513 9.98772 31.8128 11.017 32.1539 12.0523L32.2736 12.4083L31.9176 12.2887C30.9032 11.9506 29.8829 11.786 28.8566 11.798C27.8273 11.8129 26.792 12.0044 25.7448 12.3754L25.3708 12.5071L25.5054 12.1331C25.8735 11.1098 26.068 10.0835 26.0829 9.05417C26.0979 8.02488 25.9363 6.99559 25.5952 5.96032L25.4785 5.60425L25.8346 5.72394C26.8489 6.06205 27.8692 6.22661 28.8955 6.21465C29.9218 6.19969 30.9601 6.00819 32.0043 5.63717L32.3783 5.50551L32.2437 5.87953ZM37.6415 19.0868C36.6571 19.5506 35.7954 20.14 35.0563 20.8551C34.3172 21.5702 33.7039 22.414 33.2131 23.3865L33.0456 23.7216L32.878 23.3865C32.4023 22.429 31.7949 21.5942 31.0588 20.8761C30.3198 20.158 29.452 19.5625 28.4497 19.0868L28.0906 18.9162L28.4497 18.7487C29.4341 18.2849 30.2958 17.6954 31.0349 16.9803C31.7739 16.2652 32.3873 15.4214 32.878 14.446L33.0456 14.1109L33.2131 14.446C33.6919 15.4035 34.2963 16.2413 35.0324 16.9564C35.7684 17.6745 36.6361 18.2699 37.6415 18.7487L38.0005 18.9192L37.6415 19.0898V19.0868ZM31.7829 28.892C31.7979 29.9183 31.9894 30.9565 32.3604 32.0008L32.492 32.3748L32.118 32.2402C31.0917 31.8721 30.0684 31.6776 29.0391 31.6627C28.0098 31.6477 26.9805 31.8093 25.9453 32.1504L25.5892 32.2701L25.7089 31.914C26.047 30.8997 26.2116 29.8794 26.1996 28.8531C26.1846 27.8238 25.9931 26.7885 25.6221 25.7413L25.4905 25.3672L25.8645 25.5019C26.8878 25.8699 27.9141 26.0644 28.9434 26.0794C29.9727 26.0943 31.002 25.9328 32.0372 25.5917L32.3933 25.475L32.2736 25.831C31.9355 26.8454 31.7709 27.8657 31.7829 28.892ZM23.5546 33.2126C22.5971 33.6913 21.7593 34.2957 21.0442 35.0318C20.3261 35.7679 19.7306 36.6356 19.2549 37.6409L19.0843 38L18.9138 37.6409C18.45 36.6565 17.8605 35.7948 17.1454 35.0557C16.4303 34.3167 15.5865 33.7033 14.6141 33.2126L14.279 33.045L14.6141 32.8775C15.5716 32.4017 16.4064 31.7943 17.1245 31.0583C17.8426 30.3222 18.438 29.4515 18.9138 28.4491L19.0843 28.0901L19.2549 28.4491C19.7187 29.4335 20.3051 30.2953 21.0232 31.0343C21.7383 31.7734 22.5821 32.3868 23.5576 32.8775L23.8927 33.045L23.5576 33.2126H23.5546ZM12.4957 25.8609C12.1276 26.8843 11.9331 27.9106 11.9182 28.9398C11.9032 29.9691 12.0648 30.9984 12.4059 32.0337L12.5226 32.3898L12.1665 32.2701C11.1522 31.932 10.1319 31.7674 9.10559 31.7794C8.07929 31.7943 7.04102 31.9858 5.99677 32.3568L5.62276 32.4885L5.7574 32.1145C6.12543 31.0882 6.31992 30.0649 6.33488 29.0356C6.34984 28.0063 6.18827 26.977 5.84716 25.9417L5.72748 25.5857L6.08354 25.7054C7.09787 26.0435 8.11819 26.208 9.14449 26.1961C10.1738 26.1811 11.2091 25.9896 12.2563 25.6186L12.6303 25.4869L12.4957 25.8609ZM9.54842 19.2543C8.56401 19.7181 7.70228 20.3046 6.96323 21.0227C6.22417 21.7408 5.61079 22.5816 5.12008 23.557L4.95252 23.8921L4.78496 23.557C4.30622 22.5995 3.70181 21.7617 2.96575 21.0466C2.22968 20.3285 1.36197 19.7331 0.356614 19.2573L-0.00244141 19.0868L0.356614 18.9162C1.34102 18.4524 2.20276 17.863 2.94181 17.1479C3.68087 16.4298 4.29425 15.589 4.78496 14.6135L4.95252 14.2784L5.12008 14.6135C5.59583 15.571 6.20323 16.4058 6.93929 17.1239C7.67535 17.842 8.54606 18.4375 9.54842 18.9132L9.90748 19.0838L9.54842 19.2543ZM11.7985 9.14693C11.8135 10.1762 12.005 11.2115 12.376 12.2587L12.5076 12.6328L12.1336 12.4981C11.1103 12.1301 10.084 11.9356 9.05472 11.9206C8.02543 11.9057 6.99614 12.0672 5.96087 12.4083L5.6048 12.525L5.72449 12.169C6.0626 11.1546 6.22716 10.1343 6.2152 9.10803C6.20024 8.08173 6.00874 7.04346 5.63772 5.99921L5.50606 5.6252L5.88008 5.75984C6.90638 6.12787 7.92968 6.32236 8.95898 6.33732C9.98827 6.35228 11.0176 6.19071 12.0528 5.84961L12.4089 5.72992L12.2892 6.08598C11.9511 7.10032 11.7865 8.12063 11.7985 9.14693ZM23.384 5.12252C22.4265 5.59827 21.5917 6.20567 20.8736 6.94173C20.1555 7.68079 19.5601 8.5485 19.0843 9.55087L18.9138 9.90992L18.7432 9.55087C18.2794 8.56646 17.693 7.70472 16.9749 6.96567C16.2568 6.22661 15.416 5.61323 14.4405 5.12252L14.1054 4.95496L14.4405 4.7874C15.398 4.30866 16.2358 3.70425 16.9509 2.96819C17.6691 2.23213 18.2645 1.36441 18.7402 0.359055L18.9108 0L19.0813 0.359055C19.5451 1.34346 20.1346 2.2052 20.8497 2.94425C21.5678 3.68331 22.4086 4.29669 23.384 4.7874L23.7191 4.95496L23.384 5.12252Z" fill="#CEAF6D" fill-opacity="0.46"/>
</g>
<defs>
<clipPath id="clip0_192_131">
<rect width="38" height="38" fill="white"/>
</clipPath>
</defs>
</svg>
