<svg width="25" height="26" viewBox="0 0 25 26" fill="none" xmlns="http://www.w3.org/2000/svg">
<path fill-rule="evenodd" clip-rule="evenodd" d="M5.95549 19.6796C5.63658 19.3411 5.63658 18.7923 5.95549 18.4539L16.8104 6.93335H9.79928C9.34829 6.93335 8.98268 6.54532 8.98268 6.06668C8.98268 5.58804 9.34829 5.20001 9.79928 5.20001H18.7818C18.9984 5.20001 19.2061 5.29132 19.3593 5.45386C19.5123 5.61639 19.5984 5.83682 19.5984 6.06668V15.6C19.5984 16.0787 19.2327 16.4667 18.7818 16.4667C18.3309 16.4667 17.9652 16.0787 17.9652 15.6V8.159L7.11032 19.6796C6.79142 20.0179 6.27439 20.0179 5.95549 19.6796Z" fill="#CEAF6D"/>
</svg>
