<svg width="101" height="103" viewBox="0 0 101 103" fill="none" xmlns="http://www.w3.org/2000/svg">
<g clip-path="url(#clip0_186_54)">
<path d="M117.239 77.317C116.807 79.7859 111.633 81.3801 104.049 81.3801H103.856C101.021 79.0256 97.5774 76.6303 93.7011 74.3821C92.5878 73.7363 91.4746 73.1231 90.3614 72.5508C91.6108 72.3873 92.8602 72.1993 94.1175 71.9786C98.4023 71.2183 102.455 70.1555 106.003 68.8965C113.083 71.4554 117.696 74.6928 117.231 77.3088L117.239 77.317ZM111.241 93.8883C110.544 95.0982 108.702 95.3516 107.276 95.3516C104.657 95.3516 101.165 94.5423 97.2811 93.1034C95.7754 90.5282 93.9013 87.7977 91.7229 85.0181C91.6508 84.9282 91.5707 84.8301 91.4986 84.7402C91.3144 84.5031 91.1302 84.2742 90.938 84.0371C90.6657 83.7019 90.3934 83.3667 90.1131 83.0397C89.2882 82.0505 88.4473 81.094 87.6063 80.1784C88.8157 80.4481 90.049 80.7016 91.3224 80.9223C95.5431 81.6663 99.7478 82.075 103.536 82.1077C109.318 86.9475 112.554 91.5828 111.233 93.8801L111.241 93.8883ZM84.7792 116.207C84.5549 116.288 84.3067 116.329 84.0504 116.329C81.5196 116.329 77.9556 112.471 74.5839 106.56C75.1926 102.922 75.5289 98.7362 75.5289 94.248C75.5289 92.9644 75.4969 91.6891 75.4408 90.4383C76.1937 91.4275 76.9785 92.4167 77.8115 93.4141C79.8617 95.8667 81.9761 98.123 84.0664 100.093C84.8593 100.837 85.6361 101.548 86.413 102.211C87.7425 109.658 87.2619 115.299 84.7792 116.207ZM67.504 119.272C64.8531 119.272 62.4825 114.138 61.201 106.674C63.0271 103.445 64.781 99.6273 66.2867 95.4579C66.7272 94.2398 67.1276 93.038 67.504 91.8526C67.8724 93.038 68.2809 94.2398 68.7214 95.4579C70.2271 99.6191 71.981 103.437 73.807 106.674C72.5256 114.138 70.155 119.272 67.504 119.272ZM50.9577 116.337C50.7014 116.337 50.4531 116.297 50.2289 116.215C47.7381 115.307 47.2576 109.666 48.5951 102.219C51.4222 99.799 54.3695 96.7986 57.1886 93.4223C58.0215 92.4331 58.8064 91.4357 59.5592 90.4465C59.5032 91.6891 59.4711 92.9563 59.4711 94.2561C59.4711 98.7444 59.8155 102.93 60.4162 106.568C57.0524 112.479 53.4805 116.337 50.9577 116.337ZM36.7579 107.942C36.0371 107.942 35.4605 107.762 35.036 107.402C33.6185 106.208 33.8747 103.012 35.7408 98.6299C36.4055 97.0684 37.2465 95.4089 38.2396 93.7002C41.7395 92.384 45.5437 90.5773 49.3319 88.3781C50.4451 87.7323 51.5263 87.0701 52.5755 86.3997C52.0949 87.5524 51.6384 88.7297 51.198 89.9478C49.6683 94.1826 48.563 98.2457 47.8903 101.884C43.4534 105.661 39.4009 107.942 36.7659 107.942H36.7579ZM27.7239 95.3598C26.2983 95.3598 24.4563 95.1064 23.7595 93.8964C22.4381 91.591 25.6736 86.9638 31.4561 82.1241C35.2363 82.0914 39.4409 81.6826 43.6696 80.9387C44.943 80.7097 46.1844 80.4563 47.3937 80.1947C46.5528 81.1103 45.7119 82.0668 44.887 83.056C42.0838 86.4161 39.6491 89.8579 37.735 93.1198C33.8427 94.5668 30.3508 95.3762 27.7239 95.3762V95.3598ZM30.9515 81.3883C23.3751 81.3883 18.2014 79.7941 17.7609 77.3252C17.3044 74.7091 21.9095 71.4717 28.9813 68.9129C32.4412 70.1473 36.4776 71.2101 40.8745 71.9868C42.1319 72.2075 43.3893 72.4037 44.6307 72.5672C43.5174 73.1395 42.4122 73.7526 41.291 74.3985C37.4147 76.6466 33.9789 79.042 31.1437 81.3965H30.9435L30.9515 81.3883ZM23.7595 43.1199C24.4563 41.91 26.2983 41.6566 27.7239 41.6566C30.3428 41.6566 33.8347 42.4659 37.719 43.9048C39.5851 47.0849 42.0038 50.5185 44.8789 53.9685C45.7039 54.9577 46.5448 55.9142 47.3857 56.8298C46.1764 56.5601 44.935 56.3066 43.6616 56.0859C41.4592 55.6935 39.2567 55.3992 37.1183 55.1948C35.1642 55.0149 33.2581 54.9168 31.4481 54.9005C25.6656 50.0607 22.4301 45.4335 23.7515 43.1281L23.7595 43.1199ZM35.036 29.6144C35.4605 29.2547 36.0371 29.0749 36.7579 29.0749C39.3929 29.0749 43.4534 31.3639 47.8903 35.1327C48.563 38.7707 49.6602 42.8338 51.198 47.0604C51.6384 48.2785 52.103 49.4639 52.5755 50.6166C51.5343 49.9463 50.4531 49.2841 49.3319 48.6382C45.5517 46.4391 41.7555 44.6405 38.2556 43.3243C34.4674 36.7841 33.0018 31.3231 35.028 29.6144H35.036ZM50.2289 20.8015C50.4531 20.7198 50.7014 20.6789 50.9577 20.6789C53.4805 20.6789 57.0524 24.5376 60.4162 30.4401C59.8075 34.0781 59.4711 38.2638 59.4711 42.7602C59.4711 43.1935 59.4711 43.6268 59.4791 44.0601C59.4791 44.3626 59.4871 44.6651 59.5032 44.9675C59.5032 45.082 59.5032 45.2046 59.5112 45.3191C59.5192 45.7442 59.5432 46.1611 59.5592 46.5699C58.8064 45.5807 58.0215 44.5915 57.1886 43.5941C54.3695 40.2177 51.4222 37.2174 48.5951 34.7975C47.2576 27.3499 47.7381 21.7171 50.2289 20.8015ZM84.0504 20.6789C84.3067 20.6789 84.5469 20.7198 84.7792 20.8015C86.5091 21.431 87.358 24.5294 87.1018 29.2874C87.0137 30.9879 86.7814 32.8355 86.437 34.7812C83.6099 37.2092 80.6466 40.2096 77.8195 43.5941C76.9946 44.5833 76.2097 45.5725 75.4488 46.5699C75.5049 45.3273 75.5369 44.0601 75.5369 42.7602C75.5369 42.3106 75.5369 41.8691 75.5289 41.4195C75.5289 41.3704 75.5289 41.3214 75.5289 41.2723C75.5289 40.9044 75.5129 40.5366 75.5049 40.1687C75.4969 39.8498 75.4809 39.5474 75.4729 39.2367C75.4729 39.1386 75.4729 39.0405 75.4649 38.9506C75.3287 35.893 75.0324 33.0317 74.5999 30.4401C77.9716 24.5294 81.5356 20.6789 84.0664 20.6789H84.0504ZM98.2501 29.0749C98.9629 29.0749 99.5476 29.2629 99.972 29.6144C101.998 31.3231 100.541 36.7841 96.7525 43.3243C93.2526 44.6405 89.4644 46.4391 85.6842 48.6382C84.563 49.2841 83.4818 49.9463 82.4406 50.6166C82.9211 49.4639 83.3776 48.2785 83.8181 47.0604C85.3078 42.9401 86.429 38.8606 87.1098 35.1409C91.5467 31.3558 95.6152 29.0667 98.2501 29.0667V29.0749ZM107.284 41.6566C108.71 41.6566 110.552 41.91 111.249 43.1199C112.17 44.7305 110.84 47.6409 107.604 51.1235C106.451 52.3662 105.098 53.6333 103.584 54.8923C99.7958 54.925 95.5752 55.3338 91.3465 56.0777C90.0731 56.2984 88.8317 56.5519 87.6303 56.8217C88.4713 55.906 89.3042 54.9495 90.1371 53.9603C93.0123 50.5185 95.431 47.0849 97.2971 43.8966C101.181 42.4577 104.673 41.6484 107.292 41.6484L107.284 41.6566ZM81.0471 68.5041C83.6179 67.6293 86.381 66.4603 89.2081 65.046C90.7859 65.234 92.3956 65.4629 94.0054 65.749C97.9458 66.4439 101.654 67.4086 104.906 68.5123C101.614 69.6323 97.9057 70.5724 94.0054 71.2592C92.3956 71.5453 90.7939 71.7742 89.2081 71.9622C86.373 70.5479 83.6099 69.3788 81.039 68.5041H81.0471ZM81.4155 72.4446C80.6706 72.4446 79.9498 72.4282 79.2531 72.3955C78.0197 71.4472 76.8184 70.6297 75.6891 69.9511C76.9946 69.7059 78.3961 69.3461 79.8858 68.8802C82.3605 69.6732 85.0595 70.7605 87.8386 72.1012C85.6041 72.3219 83.4417 72.4364 81.4155 72.4364V72.4446ZM80.2301 73.164C80.6226 73.1722 81.007 73.1803 81.4155 73.1803C83.8181 73.1803 86.413 73.025 89.08 72.7225C90.4895 73.4338 91.9231 74.2022 93.3407 75.0361C96.8085 77.0472 99.964 79.2219 102.639 81.3801C99.1391 81.2984 95.3109 80.8978 91.4666 80.2192C89.8408 79.9331 88.255 79.5979 86.7173 79.23C84.5309 76.9246 82.3285 74.8808 80.2221 73.1803L80.2301 73.164ZM96.1518 92.6783C92.9402 91.4111 89.4884 89.7352 86.0446 87.7405C84.611 86.9148 83.2335 86.0482 81.92 85.1734C80.6466 82.2467 79.2771 79.5816 77.8755 77.268C80.3743 78.2408 83.2335 79.1319 86.3569 79.884C87.4381 81.0368 88.5113 82.2467 89.5685 83.5139C92.1394 86.5959 94.3658 89.7271 96.1518 92.6701V92.6783ZM78.3801 92.9481C77.3229 91.6809 76.3218 90.3974 75.3768 89.1221C75.1845 85.9828 74.8081 82.9988 74.2795 80.3173C76.2898 82.0914 78.6684 83.9063 81.3274 85.6721C81.9601 87.1273 82.5527 88.6397 83.1213 90.193C84.4909 93.9782 85.524 97.6897 86.1968 101.074C85.9805 100.886 85.7723 100.69 85.548 100.494C83.1774 98.3274 80.7347 95.7767 78.3721 92.9481H78.3801ZM65.7501 80.816C66.4629 79.4262 67.0555 78.11 67.512 76.8756C67.9685 78.11 68.5612 79.4262 69.274 80.816C68.9296 83.3912 68.345 86.2444 67.512 89.2447C66.6871 86.2444 66.0945 83.3831 65.7501 80.816ZM61.6736 79.4589C62.4264 78.764 63.1232 78.061 63.7639 77.3742C64.0842 77.0309 64.3806 76.6957 64.6609 76.3687C64.6689 77.6849 64.781 79.1319 64.9732 80.677C63.7719 82.9743 62.2502 85.4596 60.4482 87.9939C60.6885 84.8873 61.1129 81.9933 61.6656 79.4589H61.6736ZM60.7285 80.3092C60.2079 82.9498 59.8315 85.9174 59.6393 89.1303C58.7023 90.3974 57.7012 91.6809 56.636 92.9481C54.0651 96.0302 51.3902 98.7934 48.8193 101.074C49.4921 97.6897 50.5172 93.9782 51.8867 90.193C52.4553 88.6316 53.048 87.1191 53.6807 85.6721C56.2916 83.9308 58.6782 82.1159 60.7205 80.3173L60.7285 80.3092ZM58.2938 76.802C59.7274 76.2052 61.0248 75.5675 62.1621 74.9217C61.7216 76.1643 61.3292 77.5704 60.9848 79.0992C59.0467 80.8733 56.7641 82.6718 54.2493 84.405C55.5308 81.5763 56.9083 79.0011 58.2938 76.802ZM57.1486 77.2598C55.747 79.5734 54.3695 82.2467 53.1041 85.1734C51.7826 86.0482 50.4051 86.9066 48.9795 87.7323C45.5277 89.7352 42.0678 91.4111 38.8483 92.6783C40.6663 89.6862 42.9088 86.5632 45.4556 83.5139C46.5208 82.2467 47.594 81.0368 48.6671 79.884C51.7906 79.1319 54.6498 78.2408 57.1486 77.2598ZM55.9953 73.1231C56.1795 73.1149 56.3557 73.1068 56.5399 73.0986C57.1245 73.0659 57.6932 73.0168 58.2378 72.9678C58.9746 72.8942 59.6794 72.8043 60.3441 72.6898C59.5112 73.7036 58.6702 74.8726 57.8373 76.1807C55.4347 77.1699 52.6556 78.0937 49.6362 78.8867C51.7986 76.663 53.961 74.7173 56.0033 73.1313L55.9953 73.1231ZM53.6086 73.1803C54.0091 73.1803 54.4015 73.1803 54.7939 73.164C52.6876 74.8644 50.4932 76.9083 48.3067 79.2137C46.769 79.5816 45.1833 79.9167 43.5575 80.2029C39.7132 80.8814 35.877 81.282 32.3771 81.3719C35.0601 79.2137 38.2075 77.0391 41.6754 75.028C43.101 74.2023 44.5266 73.4256 45.9361 72.7144C48.6031 73.0168 51.198 73.1722 53.6006 73.1722L53.6086 73.1803ZM30.1426 68.5123C33.3862 67.4086 37.0863 66.4521 41.0187 65.7572C42.6284 65.4711 44.2302 65.234 45.808 65.0541C48.6431 66.4685 51.4062 67.6293 53.977 68.5123C51.4062 69.387 48.6431 70.5561 45.808 71.9704C44.2302 71.7824 42.6284 71.5535 41.0187 71.2673C37.0863 70.5724 33.3862 69.6159 30.1426 68.5123ZM30.9675 55.6281C31.0316 55.6281 31.1037 55.6281 31.1677 55.6281C34.0029 57.9825 37.4467 60.3697 41.315 62.6179C42.4282 63.2638 43.5415 63.8687 44.6547 64.4492C43.4133 64.6127 42.1559 64.8007 40.8985 65.0214C36.5017 65.7981 32.4652 66.869 29.0053 68.0953C21.9095 65.5365 17.2964 62.3073 17.7609 59.683C17.873 59.0372 18.3135 58.4567 19.0263 57.9417C21.0525 56.4865 25.3453 55.6117 30.9515 55.6117L30.9675 55.6281ZM43.5575 56.8135C45.1833 57.0996 46.769 57.4348 48.3067 57.8027C50.4932 60.1163 52.6876 62.1519 54.7939 63.8524C54.4095 63.8442 54.0171 63.836 53.6086 63.836C51.198 63.836 48.6111 63.9914 45.9441 64.2938C44.5346 63.5826 43.109 62.8141 41.6834 61.9802C38.2156 59.9691 35.0601 57.7945 32.3851 55.6362C33.8988 55.669 35.4685 55.7671 37.0783 55.9224C39.1926 56.1186 41.3791 56.4211 43.5575 56.8053V56.8135ZM57.1486 59.7566C54.6498 58.7755 51.7906 57.8844 48.6671 57.1323C47.5859 55.9878 46.5128 54.7697 45.4556 53.5025C42.8847 50.4204 40.6583 47.2893 38.8723 44.3462C42.0838 45.6134 45.5357 47.2893 48.9795 49.2841C50.4131 50.118 51.7906 50.9764 53.1041 51.8429C54.3775 54.7697 55.747 57.443 57.1486 59.7566ZM60.9928 57.9498C61.3372 59.4704 61.7296 60.8602 62.1621 62.1029C61.0168 61.457 59.7274 60.8275 58.2938 60.2226C56.9083 58.0316 55.5388 55.4564 54.2573 52.6278C56.8122 54.3936 59.0867 56.2003 60.9928 57.9498ZM60.7285 56.699C58.7183 54.9332 56.3477 53.1183 53.6807 51.3524C53.056 49.8972 52.4553 48.3848 51.8867 46.8315C50.5172 43.0464 49.4841 39.3348 48.8193 35.9502C51.3902 38.2311 54.0651 40.9944 56.636 44.0764C57.6932 45.3436 58.6943 46.6271 59.6393 47.8943C59.8315 51.099 60.2079 54.0666 60.7285 56.699ZM61.0248 31.5193C62.6667 34.5523 64.2524 38.0513 65.6139 41.8119C66.1826 43.3734 66.6791 44.9185 67.1276 46.4309C66.2226 49.5048 65.5659 52.4234 65.1574 55.0803C63.868 52.7259 62.2582 50.2079 60.3601 47.6327C60.264 46.0549 60.216 44.428 60.216 42.7684C60.216 38.7544 60.5123 34.9202 61.0248 31.5193ZM74.3036 56.699C74.8242 54.0666 75.2006 51.0908 75.3928 47.8861C76.3298 46.6108 77.3389 45.3354 78.3881 44.0764C80.967 40.9862 83.6499 38.223 86.2288 35.9339C85.548 39.3675 84.4989 43.0791 83.1374 46.8315C82.5767 48.3848 81.9761 49.8972 81.3434 51.3524C78.6844 53.1183 76.3138 54.9332 74.3036 56.699ZM76.7383 60.2226C75.3047 60.8275 74.0072 61.457 72.862 62.1029C72.9341 61.8903 73.0141 61.6778 73.0782 61.457C73.4306 60.3861 73.751 59.2088 74.0313 57.9498C75.9374 56.2003 78.2199 54.3936 80.7667 52.6278C79.4853 55.4482 78.1078 58.0234 76.7303 60.2144L76.7383 60.2226ZM77.8755 59.7648C79.2771 57.4512 80.6466 54.786 81.92 51.8593C83.2335 50.9845 84.611 50.1261 86.0446 49.2923C89.4884 47.2975 92.9402 45.6216 96.1518 44.3544C94.3658 47.2975 92.1394 50.4286 89.5685 53.5107C88.5113 54.7779 87.4301 55.996 86.3569 57.1405C83.2335 57.8926 80.3743 58.7837 77.8755 59.7648ZM79.0368 63.9014C77.4431 63.975 75.9854 64.1222 74.688 64.3347C75.5209 63.321 76.3619 62.1519 77.1948 60.8439C79.5974 59.8465 82.3765 58.9227 85.3959 58.1379C83.2335 60.3615 81.0711 62.3073 79.0288 63.8933L79.0368 63.9014ZM81.4155 63.8442C81.015 63.8442 80.6226 63.8442 80.2301 63.8606C82.3365 62.1601 84.5309 60.1245 86.7253 57.8109C88.255 57.443 89.8408 57.1078 91.4746 56.8217C95.3269 56.1349 99.1631 55.7425 102.679 55.6526C99.956 57.8354 96.7845 60.0018 93.3487 61.9966C91.9231 62.8223 90.4975 63.5989 89.088 64.3102C86.421 64.0077 83.8341 63.8524 81.4235 63.8524L81.4155 63.8442ZM75.6891 67.0653C76.8184 66.3949 78.0197 65.5692 79.2531 64.6209C79.9498 64.5963 80.6706 64.58 81.4074 64.58C83.4337 64.58 85.6041 64.6944 87.8386 64.9152C85.0515 66.2559 82.3605 67.3432 79.8858 68.1444C78.4041 67.6784 76.9946 67.3187 75.6891 67.0734V67.0653ZM72.8059 68.5204C73.4066 68.2834 74.0313 67.9891 74.68 67.6375C75.8973 67.8174 77.2188 68.1199 78.6284 68.5204C77.2188 68.921 75.8973 69.2153 74.68 69.4034C74.0313 69.0518 73.3986 68.7575 72.8059 68.5204ZM74.688 72.698C75.9854 72.9187 77.4431 73.0659 79.0368 73.1313C81.0791 74.7173 83.2335 76.663 85.4039 78.8867C82.3845 78.1018 79.6054 77.178 77.2028 76.1807C76.3699 74.8726 75.5289 73.7036 74.696 72.6898L74.688 72.698ZM72.4455 73.8344C72.1652 73.1395 71.8689 72.5181 71.5725 71.9459C72.1812 72.1503 72.846 72.3301 73.5748 72.4854C74.3676 73.3929 75.1765 74.4557 75.9854 75.6574C74.664 75.0606 73.4787 74.4475 72.4535 73.8262L72.4455 73.8344ZM73.2784 76.2134C73.1423 75.7637 72.9981 75.3386 72.862 74.9298C73.9992 75.5757 75.3047 76.2134 76.7383 76.8183C78.1238 79.0175 79.4933 81.5845 80.7747 84.4131C78.2199 82.6473 75.9374 80.8405 74.0313 79.091C73.807 78.0773 73.5507 77.129 73.2864 76.2215L73.2784 76.2134ZM70.3392 75.2078C70.3071 74.4557 70.2431 73.7608 70.147 73.1231C70.6515 73.5237 71.2201 73.9325 71.8529 74.333C72.1091 74.9789 72.3494 75.6738 72.5737 76.4259C72.7418 76.9818 72.902 77.5623 73.0542 78.1591C72.005 77.1453 71.092 76.148 70.3392 75.2078ZM70.0429 80.6934C70.2351 79.1483 70.3392 77.7013 70.3552 76.385C71.2121 77.3906 72.2213 78.437 73.3665 79.4998C73.9352 82.075 74.3356 84.9609 74.5759 88.0266C72.7739 85.4841 71.2442 82.9988 70.0509 80.6934H70.0429ZM65.7261 72.3628C65.9583 72.1339 66.1665 71.9132 66.3588 71.6924C66.3588 71.9786 66.3748 72.2811 66.4068 72.5999C66.1585 73.0904 65.8382 73.6055 65.4698 74.145C65.5258 73.4992 65.6059 72.9024 65.7261 72.371V72.3628ZM64.5167 71.5289C64.805 71.3981 65.0854 71.2592 65.3336 71.1202C65.2375 71.39 65.1494 71.6843 65.0773 71.9949C64.6689 72.3628 64.2044 72.7389 63.6678 73.1149C63.9401 72.5263 64.2204 72.0031 64.5167 71.5371V71.5289ZM63.4435 71.9459C63.1312 72.51 62.8429 73.1476 62.5626 73.8344C61.5374 74.4557 60.3441 75.0688 59.0226 75.6656C59.8315 74.4639 60.6404 73.4011 61.4333 72.4936C62.1621 72.3383 62.8349 72.1584 63.4435 71.9459ZM60.3281 67.6375C60.9768 67.9891 61.6095 68.2834 62.2022 68.5204C61.6015 68.7575 60.9768 69.0518 60.3281 69.4034C59.1107 69.2235 57.7893 68.9292 56.3797 68.5204C57.7893 68.1199 59.1107 67.8174 60.3281 67.6375ZM59.319 67.0653C58.0135 67.3105 56.612 67.6702 55.1303 68.1362C52.6556 67.3432 49.9566 66.2477 47.1695 64.907C49.404 64.6863 51.5664 64.5718 53.6006 64.5718C54.3454 64.5718 55.0662 64.5882 55.755 64.6127C56.9884 65.561 58.1897 66.3785 59.319 67.0571V67.0653ZM61.0969 65.2422C61.5855 65.7899 62.074 66.2723 62.5465 66.6974C61.8818 66.7137 61.177 66.7791 60.4242 66.8854C59.359 66.2968 58.2217 65.5692 57.0364 64.7026C58.5341 64.8089 59.8956 64.9887 61.0969 65.2422ZM57.8133 60.8521C58.6462 62.1601 59.4952 63.3292 60.3201 64.3429C59.0226 64.1222 57.565 63.9832 55.9793 63.9096C53.937 62.3236 51.7746 60.3779 49.6122 58.1542C52.6315 58.9391 55.4106 59.8629 57.8133 60.8602V60.8521ZM64.6529 60.6559C63.8039 59.6585 62.8028 58.6202 61.6575 57.5574C61.1049 55.0231 60.6885 52.1372 60.4402 49.0306C62.2342 51.565 63.7639 54.0503 64.9652 56.3475C64.765 57.9008 64.6609 59.3396 64.6529 60.6559ZM67.1196 61.269C66.8874 61.9884 66.7112 62.6588 66.583 63.2883C66.2466 62.7324 65.8542 62.1683 65.3977 61.5797C65.3737 60.3779 65.4377 59.0372 65.5899 57.5901C66.2226 58.8982 66.7432 60.1408 67.1276 61.2772L67.1196 61.269ZM69.266 56.2249C68.7935 57.1405 68.377 58.0398 68.0086 58.9063C67.8244 59.3396 67.6642 59.7566 67.512 60.1572C67.0555 58.9227 66.4629 57.6065 65.7501 56.2085C66.0945 53.6333 66.6791 50.7802 67.512 47.7798C68.345 50.7802 68.9296 53.6415 69.274 56.2167L69.266 56.2249ZM69.8667 55.1049C69.4582 52.4479 68.8015 49.5212 67.8885 46.4391C68.337 44.9267 68.8415 43.3734 69.4021 41.8201C70.7636 38.0595 72.3414 34.5605 73.9912 31.5274C74.5118 34.9283 74.8001 38.7625 74.8001 42.7766C74.8001 44.4362 74.7521 46.063 74.648 47.6409C72.7899 50.1752 71.1641 52.7013 69.8506 55.0967L69.8667 55.1049ZM73.3505 57.5656C72.2133 58.6202 71.2041 59.6585 70.3632 60.664C70.3472 59.3478 70.2431 57.8926 70.0429 56.3393C71.2602 54.0012 72.7899 51.5323 74.5679 49.0306C74.3276 52.1454 73.9031 55.0395 73.3505 57.5738V57.5656ZM71.8529 62.7242C71.2201 63.1166 70.6515 63.5254 70.147 63.926C70.2431 63.2801 70.3071 62.5852 70.3392 61.8413C71.084 60.9011 71.997 59.9201 73.0302 58.9063C72.9901 59.0699 72.9501 59.2334 72.91 59.3887C72.5897 60.6068 72.2373 61.7268 71.8529 62.716V62.7242ZM71.5645 65.1032C71.8769 64.5391 72.1652 63.9096 72.4455 63.2147C73.4706 62.5934 74.656 61.9721 75.9774 61.3835C75.1685 62.5852 74.3596 63.6562 73.5748 64.5555C72.846 64.7108 72.1732 64.8906 71.5645 65.1032ZM71.3483 66.7219C71.0279 66.7464 70.7156 66.7791 70.4353 66.8282C70.6115 66.6156 70.7877 66.3785 70.9559 66.1333C71.4604 65.9207 72.0371 65.7327 72.6618 65.5528C72.2133 66.0025 71.7728 66.3949 71.3483 66.7219ZM72.4615 66.7137C72.9421 66.2886 73.4226 65.7981 73.9111 65.2585C75.1125 65.0051 76.474 64.8252 77.9716 64.719C76.7863 65.5774 75.6491 66.3131 74.5839 66.9017C73.8311 66.7955 73.1183 66.7301 72.4615 66.7137ZM71.5725 68.1117C71.3163 68.0381 71.068 67.9809 70.8277 67.94C71.076 67.801 71.3163 67.6375 71.5645 67.4495C71.7487 67.4413 71.9329 67.4413 72.1091 67.4413C72.5176 67.4413 72.9581 67.4658 73.4066 67.5067C72.8219 67.7765 72.2613 67.9972 71.7327 68.1607C71.6847 68.1444 71.6286 68.128 71.5806 68.1117H71.5725ZM72.4615 70.3599C73.1263 70.3435 73.8311 70.2781 74.5839 70.1718C75.6491 70.7523 76.7863 71.4881 77.9716 72.3546C76.474 72.2484 75.1125 72.0603 73.9111 71.8151C73.4226 71.2673 72.9341 70.7768 72.4615 70.3599ZM70.4433 70.2454C70.7316 70.2945 71.0279 70.319 71.3483 70.3435C71.7728 70.6705 72.2133 71.063 72.6618 71.5126C72.0371 71.3409 71.4684 71.1529 70.9639 70.9403C70.7957 70.6869 70.6195 70.458 70.4433 70.2454ZM69.6744 71.1365C69.9227 71.2755 70.195 71.4145 70.4833 71.5453C70.7797 72.0031 71.06 72.5345 71.3403 73.1231C70.8117 72.7552 70.3392 72.3792 69.9387 72.0113C69.8666 71.7006 69.7786 71.4145 69.6824 71.1365H69.6744ZM68.6093 72.6326C68.6413 72.3138 68.6573 72.0031 68.6653 71.7088C68.8575 71.9295 69.0578 72.1584 69.298 72.3792C69.4182 72.9187 69.4982 73.5155 69.5543 74.1614C69.1779 73.63 68.8655 73.1149 68.6173 72.6244L68.6093 72.6326ZM63.6758 70.3435C63.9961 70.319 64.3085 70.2863 64.5888 70.2373C64.4126 70.4498 64.2444 70.6869 64.0762 70.9321C63.5717 71.1447 62.995 71.3409 62.3703 71.5126C62.8188 71.063 63.2593 70.6705 63.6838 70.3435H63.6758ZM62.5626 70.3599C62.082 70.7768 61.6015 71.2673 61.1129 71.8151C59.9116 72.0603 58.5501 72.2402 57.0524 72.3546C58.2378 71.4881 59.375 70.7523 60.4402 70.1718C61.193 70.2781 61.9058 70.3435 62.5626 70.3599ZM64.1964 69.1336C63.9561 69.2807 63.7078 69.4361 63.4595 69.6241C63.2753 69.6323 63.0911 69.6405 62.9149 69.6405C62.5065 69.6405 62.066 69.6159 61.6175 69.5751C62.2022 69.3053 62.7708 69.0845 63.2914 68.9129C63.6037 69.011 63.9 69.0764 64.1964 69.1336ZM63.4595 67.4495C63.7078 67.6375 63.9561 67.801 64.1964 67.94C63.908 67.9972 63.6037 68.0708 63.2914 68.1607C62.7628 67.9972 62.2022 67.7765 61.6175 67.5067C62.066 67.4658 62.5065 67.4413 62.9149 67.4413C63.0911 67.4413 63.2753 67.4413 63.4595 67.4495ZM64.0682 66.1333C64.2364 66.3867 64.4126 66.6156 64.5888 66.8282C64.3005 66.7791 64.0042 66.7464 63.6838 66.7219C63.2593 66.3949 62.8188 66.0025 62.3703 65.5528C62.995 65.7245 63.5637 65.9125 64.0682 66.1333ZM62.5786 63.2229C62.5786 63.2229 62.5866 63.2556 62.5946 63.2719C62.6186 63.321 62.6346 63.37 62.6587 63.4191C62.7147 63.5499 62.7628 63.6643 62.8188 63.787C63.0271 64.2611 63.2433 64.7026 63.4595 65.1032C62.8509 64.8988 62.1781 64.719 61.4493 64.5555C60.6644 63.648 59.8556 62.5852 59.0467 61.3835C60.3681 61.9802 61.5614 62.5934 62.5866 63.2147L62.5786 63.2229ZM66.3588 65.3566C66.1746 65.1359 65.9663 64.907 65.7341 64.6863C65.6139 64.1467 65.5258 63.5499 65.4698 62.9041C65.8462 63.4354 66.1505 63.9423 66.4068 64.4328C66.3748 64.7598 66.3588 65.0623 66.3508 65.3566H66.3588ZM67.8724 64.3102C67.7283 64.5963 67.6081 64.8825 67.512 65.1604C67.4159 64.8906 67.2958 64.6127 67.1597 64.3265C67.2317 63.7788 67.3519 63.1902 67.5201 62.5525C67.6882 63.182 67.8084 63.7706 67.8804 64.3184L67.8724 64.3102ZM69.29 64.6863C69.0578 64.9152 68.8495 65.1359 68.6573 65.3648C68.6573 65.0705 68.6413 64.768 68.6012 64.441C68.8575 63.9505 69.1699 63.4354 69.5383 62.9041C69.4822 63.5499 69.3941 64.1467 69.282 64.6863H69.29ZM70.4994 65.5201C70.203 65.6509 69.9307 65.7899 69.6744 65.9371C69.7705 65.6673 69.8586 65.373 69.9307 65.0623C70.3392 64.6944 70.8037 64.3184 71.3403 63.9505C71.068 64.5391 70.7877 65.0623 70.4994 65.5283V65.5201ZM65.0934 65.0623C65.1654 65.373 65.2535 65.6591 65.3496 65.9371C65.1014 65.7899 64.8291 65.6591 64.5407 65.5283C64.2444 65.0705 63.9641 64.5391 63.6838 63.9505C64.2124 64.3184 64.6849 64.6944 65.0854 65.0623H65.0934ZM71.5725 69.6159C71.3243 69.4279 71.076 69.2726 70.8357 69.1254C71.124 69.0682 71.4284 69.0028 71.7407 68.9047C72.2693 69.0682 72.8299 69.2889 73.4146 69.5669C72.9661 69.6078 72.5256 69.6323 72.1171 69.6323C71.941 69.6323 71.7648 69.6323 71.5725 69.6159ZM69.6264 61.5797C69.1699 62.1683 68.7694 62.7487 68.4331 63.2965C68.3049 62.6588 68.1287 61.9802 67.8965 61.269C68.1207 60.615 68.377 59.9283 68.6893 59.2007C68.9136 58.6693 69.1699 58.1215 69.4342 57.5656C69.5863 59.0208 69.6504 60.3779 69.6264 61.5878V61.5797ZM64.6849 61.8413C64.7089 62.5852 64.773 63.2801 64.8691 63.926C64.3646 63.5254 63.7959 63.1166 63.1712 62.7242C62.7388 61.6042 62.3383 60.3207 61.9859 58.9063C63.0191 59.9201 63.9321 60.9011 64.6849 61.8413ZM67.464 74.333C67.3198 73.7771 67.2157 73.2539 67.1516 72.7634C67.2958 72.4773 67.4159 72.1911 67.512 71.9132C67.6162 72.1911 67.7283 72.4691 67.8724 72.7552C67.8004 73.303 67.6802 73.8916 67.512 74.5211C67.496 74.4557 67.48 74.3985 67.464 74.333ZM69.4342 79.4671C68.8015 78.1591 68.2889 76.9246 67.8965 75.7801C68.1287 75.0688 68.3049 74.3903 68.4331 73.7526C68.7694 74.3085 69.1699 74.8808 69.6264 75.4776C69.6504 76.6793 69.5863 78.0201 69.4342 79.4671ZM47.1775 72.1339C49.9646 70.7932 52.6556 69.7059 55.1383 68.9129C56.62 69.3788 58.0295 69.7386 59.327 69.9838C58.1977 70.6624 56.9964 71.4799 55.763 72.42C55.0662 72.4527 54.3535 72.4691 53.6086 72.4691C51.5824 72.4691 49.412 72.3546 47.1775 72.1339ZM63.2353 76.9001C62.8429 77.3252 62.4184 77.7503 61.9779 78.1836C62.3303 76.7611 62.7307 75.4694 63.1632 74.3412C63.7959 73.9406 64.3565 73.5401 64.8611 73.1313C64.765 73.7771 64.7009 74.472 64.6689 75.2242C64.2444 75.7637 63.7639 76.3278 63.2273 76.9001H63.2353ZM65.4057 75.4858C65.8622 74.8971 66.2627 74.3167 66.599 73.769C66.7272 74.4066 66.9034 75.077 67.1356 75.7882C66.7512 76.9246 66.2306 78.1672 65.5979 79.4753C65.4458 78.0283 65.3817 76.6875 65.4057 75.4858ZM71.4124 21.7662C71.4444 21.8398 71.4764 21.9133 71.5165 21.9951C71.5565 22.085 71.5966 22.1749 71.6366 22.2649C72.5256 24.3904 73.2704 27.1619 73.823 30.3584C72.005 33.5876 70.2511 37.4054 68.7374 41.5666C68.2969 42.7848 67.8885 43.9947 67.5201 45.1801C67.1516 43.9947 66.7432 42.7929 66.3027 41.5666C64.797 37.4054 63.0431 33.5876 61.2171 30.3584C62.4985 22.9025 64.8691 17.7603 67.5201 17.7603C67.6402 17.7603 67.7523 17.7685 67.8724 17.793C69.1138 18.0137 70.3472 19.4117 71.4204 21.7662H71.4124ZM60.3601 89.4164C62.2582 86.8412 63.876 84.3232 65.1574 81.9687C65.5659 84.6175 66.2226 87.5361 67.1356 90.6182C66.6871 92.1306 66.1826 93.6839 65.6219 95.2372C64.2604 98.9978 62.6827 102.505 61.0329 105.53C60.5203 102.129 60.224 98.2947 60.224 94.2807C60.224 92.6211 60.272 90.9942 60.3681 89.4164H60.3601ZM74.8161 94.2807C74.8161 98.2947 74.5198 102.129 74.0072 105.53C72.3654 102.505 70.7797 98.9978 69.4182 95.2372C68.8495 93.6757 68.353 92.1306 67.9045 90.6182C68.8095 87.5443 69.4662 84.6257 69.8747 81.9687C71.1641 84.3232 72.7739 86.8412 74.68 89.4246C74.7681 91.0106 74.8161 92.6293 74.8161 94.2807ZM100.324 101.557C100.356 101.671 100.388 101.786 100.421 101.892C100.461 102.047 100.509 102.211 100.549 102.366C100.549 102.382 100.549 102.399 100.557 102.407C101.077 104.614 100.981 106.266 100.228 107.165C100.156 107.255 100.068 107.337 99.98 107.418C99.5556 107.778 98.9789 107.958 98.2581 107.958C95.6232 107.958 91.5627 105.669 87.1258 101.9C86.4611 98.262 85.3558 94.1989 83.8181 89.9641C83.3776 88.746 82.9131 87.5688 82.4406 86.4161C83.4818 87.0783 84.563 87.7486 85.6842 88.3945C89.4644 90.5855 93.2526 92.3922 96.7525 93.7084C98.3863 96.537 99.5956 99.1613 100.268 101.369C100.284 101.426 100.308 101.491 100.324 101.557ZM104.065 55.6526C111.641 55.6526 116.815 57.2468 117.255 59.7239C117.576 61.547 115.333 63.836 111.104 65.9861C109.599 66.7546 107.901 67.474 106.059 68.1444C102.591 66.9099 98.5384 65.8471 94.1336 65.0623C92.8762 64.8416 91.6188 64.6454 90.3774 64.49C91.4906 63.9096 92.5959 63.3046 93.7171 62.6588C97.4893 60.4678 100.949 58.0725 103.856 55.669C103.928 55.669 104.001 55.669 104.073 55.669L104.065 55.6526ZM107.116 68.5286C108.678 67.94 110.127 67.3023 111.433 66.6401C116.038 64.2938 118.36 61.7922 117.968 59.5931C117.471 56.7481 112.53 55.0149 104.713 54.925C105.979 53.8295 107.132 52.734 108.133 51.6549C111.657 47.8698 112.994 44.7223 111.881 42.7848C111.184 41.5666 109.639 40.9535 107.284 40.9535C104.777 40.9535 101.494 41.6647 97.8497 42.9483C101.534 36.359 102.703 30.9879 100.445 29.083C99.8839 28.617 99.1471 28.3718 98.2581 28.3718C95.6072 28.3718 91.6428 30.5137 87.31 34.0863C87.5823 32.4185 87.7585 30.8407 87.8466 29.3528C88.1269 24.1779 87.1338 20.9078 85.0435 20.1393C84.7391 20.0249 84.4108 19.9676 84.0664 19.9676C81.3834 19.9676 77.8035 23.6056 74.4077 29.3446C73.8871 26.5896 73.2144 24.1779 72.4215 22.2485C72.4135 22.2158 72.3975 22.1831 72.3895 22.1586C72.3254 22.0114 72.2613 21.8725 72.2052 21.7253C72.1492 21.6109 72.1011 21.4964 72.0531 21.3819C72.0451 21.3574 72.029 21.3411 72.021 21.3165C70.7156 18.5288 69.1699 17.0327 67.5281 17.0327C64.5728 17.0327 62.034 21.9133 60.6404 29.3528C57.2366 23.6138 53.6567 19.9758 50.9817 19.9758C50.6373 19.9758 50.309 20.033 50.0046 20.1475C47.2255 21.1612 46.5047 26.6141 47.7221 34.0781C43.3893 30.5137 39.4249 28.38 36.782 28.38C35.893 28.38 35.1482 28.617 34.5955 29.0912C32.329 30.996 33.5063 36.3672 37.1904 42.9564C33.5384 41.6729 30.2707 40.9617 27.756 40.9617C25.4094 40.9617 23.8556 41.5748 23.1589 42.7929C21.6852 45.3681 24.6085 50.0035 30.3108 54.9332C25.6016 54.9904 21.9415 55.6363 19.667 56.7726C18.1693 57.5166 17.2723 58.4731 17.0721 59.6012C16.5595 62.5198 20.8843 65.8717 27.9081 68.545C20.8523 71.1692 16.5275 74.5211 17.0401 77.4478C17.5446 80.2928 22.4701 82.0178 30.2788 82.1159C24.5764 87.0456 21.6452 91.6809 23.1268 94.2561C23.8236 95.4743 25.3693 96.0874 27.7239 96.0874C30.2387 96.0874 33.5224 95.368 37.1744 94.0845C36.3495 95.556 35.6447 96.9785 35.0681 98.3356C33.0418 103.11 32.8656 106.519 34.5635 107.958C35.1241 108.432 35.8609 108.669 36.7499 108.669C39.3929 108.669 43.3573 106.535 47.6901 102.971C46.4727 110.435 47.1935 115.888 49.9726 116.902C50.2849 117.016 50.6053 117.073 50.9497 117.073C53.6246 117.073 57.2046 113.435 60.6084 107.696C62.0019 115.128 64.5407 120.008 67.496 120.008C70.4513 120.008 72.9901 115.128 74.3837 107.696C77.7794 113.435 81.3674 117.073 84.0424 117.073C84.3867 117.073 84.7151 117.016 85.0195 116.902C87.7985 115.888 88.5193 110.435 87.302 102.971C91.6268 106.535 95.5912 108.669 98.2421 108.669C99.1391 108.669 99.8759 108.432 100.429 107.958C101.766 106.83 101.934 104.475 100.965 101.197C100.941 101.099 100.909 101.009 100.885 100.911C100.861 100.837 100.829 100.755 100.805 100.674C100.172 98.7116 99.1712 96.4798 97.8337 94.0845C101.478 95.368 104.753 96.0874 107.268 96.0874C109.615 96.0874 111.168 95.4743 111.865 94.2561C113.339 91.6809 110.416 87.0456 104.713 82.1159C112.522 82.0178 117.455 80.2928 117.952 77.4478C118.465 74.5211 114.132 71.1692 107.1 68.4959L107.116 68.5286Z" fill="#CEAF6D" fill-opacity="0.46"/>
</g>
<defs>
<clipPath id="clip0_186_54">
<rect width="101" height="103" fill="white"/>
</clipPath>
</defs>
</svg>
