<svg width="14" height="14" viewBox="0 0 14 14" fill="none" xmlns="http://www.w3.org/2000/svg">
<path d="M5.16667 11.6452C1.83333 12.5726 1.83333 10.0996 0.5 9.79045M9.83333 13.5V11.1073C9.85834 10.8125 9.81539 10.5162 9.70734 10.2379C9.59929 9.95971 9.42862 9.70601 9.20667 9.49368C11.3 9.27729 13.5 8.54156 13.5 5.16587C13.4998 4.30268 13.1418 3.47258 12.5 2.8474C12.8039 2.0922 12.7824 1.25746 12.44 0.516565C12.44 0.516565 11.6533 0.300174 9.83333 1.43159C8.30534 1.04754 6.69466 1.04754 5.16667 1.43159C3.34667 0.300174 2.56 0.516565 2.56 0.516565C2.21758 1.25746 2.1961 2.0922 2.5 2.8474C1.85342 3.47722 1.49502 4.31482 1.5 5.18442C1.5 8.53538 3.7 9.27111 5.79333 9.51223C5.574 9.72242 5.40484 9.97308 5.29687 10.2479C5.1889 10.5227 5.14454 10.8156 5.16667 11.1073V13.5" stroke="#CEAF6D" stroke-linecap="round" stroke-linejoin="round"/>
</svg>
